# This file uses centimeters as units for non-parametric coordinates.

mtllib frame.mtl
g default
v 2.244962 -2.244962 -0.153999
v 2.244962 2.244962 -0.153999
v -2.244963 2.244962 -0.153999
v -2.244962 -2.244963 -0.153999
v 2.244962 -2.244962 0.153999
v 2.244962 2.244962 0.153999
v -2.244963 2.244962 0.153999
v -2.244962 -2.244963 0.153999
v 2.494403 -2.494403 0.153999
v 2.494403 2.494403 0.153999
v -2.494403 2.494403 0.153999
v -2.494403 -2.494403 0.153999
v 2.494403 -2.494403 -0.153999
v 2.494403 2.494403 -0.153999
v -2.494403 2.494403 -0.153999
v -2.494403 -2.494403 -0.153999
vt 0.000000 1.000000
vt 0.250000 1.000000
vt 0.500000 1.000000
vt 0.750000 1.000000
vt 1.000000 1.000000
vt 0.000000 0.750000
vt 0.250000 0.750000
vt 0.500000 0.750000
vt 0.750000 0.750000
vt 1.000000 0.750000
vt 0.000000 0.500000
vt 0.250000 0.500000
vt 0.500000 0.500000
vt 0.750000 0.500000
vt 1.000000 0.500000
vt 0.000000 0.250000
vt 0.250000 0.250000
vt 0.500000 0.250000
vt 0.750000 0.250000
vt 1.000000 0.250000
vt 0.000000 0.000000
vt 0.250000 0.000000
vt 0.500000 0.000000
vt 0.750000 0.000000
vt 1.000000 0.000000
vn -1.000000 0.000000 0.000000
vn -1.000000 0.000000 0.000000
vn -1.000000 0.000000 0.000000
vn -1.000000 0.000000 0.000000
vn 0.000000 -1.000000 0.000000
vn 0.000000 -1.000000 0.000000
vn 0.000000 -1.000000 0.000000
vn 0.000000 -1.000000 0.000000
vn 1.000000 0.000000 -0.000000
vn 1.000000 0.000000 -0.000000
vn 1.000000 0.000000 -0.000000
vn 1.000000 0.000000 -0.000000
vn -0.000000 1.000000 -0.000000
vn -0.000000 1.000000 -0.000000
vn -0.000000 1.000000 -0.000000
vn -0.000000 1.000000 -0.000000
vn 0.000000 0.000000 1.000000
vn 0.000000 0.000000 1.000000
vn 0.000000 0.000000 1.000000
vn 0.000000 0.000000 1.000000
vn 0.000000 0.000000 1.000000
vn 0.000000 0.000000 1.000000
vn 0.000000 0.000000 1.000000
vn 0.000000 0.000000 1.000000
vn 1.000000 0.000000 0.000000
vn 1.000000 0.000000 0.000000
vn 1.000000 0.000000 0.000000
vn 1.000000 0.000000 0.000000
vn -0.000000 1.000000 -0.000000
vn -0.000000 1.000000 -0.000000
vn -0.000000 1.000000 -0.000000
vn -0.000000 1.000000 -0.000000
vn -1.000000 -0.000000 0.000000
vn -1.000000 -0.000000 0.000000
vn -1.000000 -0.000000 0.000000
vn -1.000000 -0.000000 0.000000
vn 0.000000 -1.000000 0.000000
vn 0.000000 -1.000000 0.000000
vn 0.000000 -1.000000 0.000000
vn 0.000000 -1.000000 0.000000
vn 0.000000 0.000000 -1.000000
vn 0.000000 0.000000 -1.000000
vn 0.000000 0.000000 -1.000000
vn 0.000000 0.000000 -1.000000
vn 0.000000 0.000000 -1.000000
vn 0.000000 0.000000 -1.000000
vn 0.000000 0.000000 -1.000000
vn 0.000000 0.000000 -1.000000
g pPipe1
usemtl initialShadingGroup
f 2/2/1 1/1/2 5/6/3 6/7/4
f 3/3/5 2/2/6 6/7/7 7/8/8
f 4/4/9 3/3/10 7/8/11 8/9/12
f 1/5/13 4/4/14 8/9/15 5/10/16
f 6/7/17 5/6/18 9/11/19 10/12/20
f 7/8/21 6/7/17 10/12/20 11/13/22
f 8/9/23 7/8/21 11/13/22 12/14/24
f 5/10/18 8/9/23 12/14/24 9/15/19
f 10/12/25 9/11/26 13/16/27 14/17/28
f 11/13/29 10/12/30 14/17/31 15/18/32
f 12/14/33 11/13/34 15/18/35 16/19/36
f 9/15/37 12/14/38 16/19/39 13/20/40
f 14/17/41 13/16/42 1/21/43 2/22/44
f 15/18/45 14/17/41 2/22/44 3/23/46
f 16/19/47 15/18/45 3/23/46 4/24/48
f 13/20/42 16/19/47 4/24/48 1/25/43
